<?xml version="1.0" standalone="no"?>
<!DOCTYPE svg PUBLIC "-//W3C//DTD SVG 20010904//EN"
 "http://www.w3.org/TR/2001/REC-SVG-20010904/DTD/svg10.dtd">
<svg version="1.0" xmlns="http://www.w3.org/2000/svg"
 width="1080.000000pt" height="1080.000000pt" viewBox="0 0 1080.000000 1080.000000"
 preserveAspectRatio="xMidYMid meet">
<metadata>
Created by potrace 1.14, written by Peter Selinger 2001-2017
</metadata>
<g transform="translate(0.000000,1080.000000) scale(0.100000,-0.100000)"
fill="#000000" stroke="none">
<path d="M0 5400 l0 -5400 5400 0 5400 0 0 5400 0 5400 -5400 0 -5400 0 0
-5400z m8365 3139 c4 -12 4 -151 0 -310 l-8 -288 -151 -3 -151 -3 -5 -305 -5
-305 -150 -5 -150 -5 -5 -460 -5 -460 -150 -5 -150 -5 0 -155 0 -155 153 -3
152 -3 0 -154 0 -155 155 0 154 0 3 -152 3 -153 152 -3 152 -3 3 -152 3 -152
153 -3 152 -3 0 -147 0 -147 -302 2 -303 3 -2 137 c-1 76 -2 144 -3 151 0 10
-35 12 -157 10 l-158 -3 -3 -151 c-3 -180 -21 -164 181 -164 l137 0 -2 -302
-3 -303 -155 -5 -155 -5 -3 -144 c-2 -100 1 -148 9 -158 10 -11 42 -14 148
-13 75 1 142 1 149 0 9 0 12 -130 12 -615 l0 -614 -157 -3 -158 -3 -3 -462 -2
-463 -150 0 -149 0 -3 -152 -3 -153 -307 -3 -307 -2 -3 152 -3 153 -152 3
-153 3 0 309 0 310 -155 0 -155 0 -2 773 -3 772 -307 3 -308 2 0 -155 0 -155
-154 0 c-164 0 -166 -1 -160 -50 1 -14 3 -78 3 -142 l1 -118 298 0 c163 0 303
-4 310 -8 9 -7 12 -75 10 -308 l-3 -299 -299 -3 c-201 -1 -304 -6 -313 -13
-15 -13 -16 -68 -7 -207 l7 -92 459 -2 459 -3 -1 -291 c0 -160 2 -298 6 -307
5 -15 26 -17 155 -17 176 0 158 20 162 -180 l2 -135 148 0 147 0 0 -152 0
-153 -1545 0 -1545 0 0 150 0 150 144 0 c108 0 146 3 155 13 8 10 12 234 13
778 l3 763 132 -3 c72 -1 141 0 152 4 20 6 21 14 21 160 l0 153 -307 1 -308 1
0 306 0 306 305 -1 305 -1 1 -294 c1 -162 4 -301 7 -310 5 -13 28 -15 139 -15
73 0 141 3 151 5 16 5 17 28 17 309 0 267 -2 304 -16 309 -9 3 -78 6 -155 6
l-138 0 -3 153 -3 152 -152 3 -153 3 0 304 0 305 139 0 c77 0 146 3 154 6 12
4 15 32 16 151 1 81 4 150 7 155 3 4 70 8 149 8 172 0 157 17 153 -175 l-3
-130 -155 -5 -155 -5 -3 -120 c-2 -66 0 -135 3 -152 l6 -33 303 0 c268 0 305
-2 310 -16 3 -9 6 -78 6 -155 l0 -139 465 0 465 0 0 149 c0 146 0 149 23 155
12 3 426 6 920 6 494 -1 902 2 908 6 6 4 9 61 7 152 l-3 147 -152 3 -153 3 0
309 0 310 -307 2 -307 3 1 148 c1 92 -3 149 -9 153 -6 4 -216 7 -466 8 l-456
1 0 150 -1 150 -465 5 -465 5 -3 153 c-2 111 -6 152 -15 152 -6 0 -214 2 -462
3 l-450 2 -3 145 c-2 100 -6 147 -15 152 -7 4 -76 8 -155 8 l-143 0 3 153 3
152 927 3 927 2 3 151 3 150 296 -1 c229 0 298 2 306 12 5 7 11 76 12 153 1
77 5 143 9 147 4 4 143 9 307 10 l300 3 5 148 5 149 140 0 c77 1 146 3 153 5
9 4 12 44 12 154 l0 149 305 0 305 0 0 148 c0 102 4 152 12 160 9 9 91 12 309
12 295 0 298 0 304 -21z m-3097 -3082 l-3 -302 -152 -3 -153 -3 0 305 0 305
82 3 c45 2 115 2 155 0 l73 -4 -2 -301z m925 -7 c4 0 6 -136 5 -302 l-3 -303
-152 -3 -153 -3 0 304 c0 167 2 306 4 308 3 3 242 3 299 -1z m1867 -3870 l5
-155 153 -3 152 -3 0 -133 c0 -74 -3 -141 -6 -150 -5 -14 -56 -16 -465 -16
l-459 0 0 150 0 150 149 0 c110 0 150 3 153 13 2 6 5 75 7 152 2 77 5 143 8
148 2 4 71 6 151 5 l147 -3 5 -155z"/>
<path d="M6200 4201 c-10 -20 -13 -261 -3 -287 4 -11 91 -13 464 -14 l459 0 5
22 c3 13 4 84 3 158 l-3 135 -457 3 c-446 2 -457 2 -468 -17z"/>
<path d="M4336 2964 c-9 -24 -7 -592 2 -598 5 -3 76 -6 158 -7 l149 -1 0 308
0 309 -151 3 c-132 2 -152 0 -158 -14z"/>
<path d="M4650 2205 l0 -155 155 0 155 0 0 -155 0 -155 157 0 156 0 -6 -149
c-4 -103 -2 -152 6 -160 8 -8 101 -11 303 -11 236 0 294 3 303 14 8 9 11 60 9
157 l-3 144 -307 3 -307 2 -3 153 -3 152 -152 3 -152 3 -3 152 -3 152 -152 3
-153 3 0 -156z"/>
</g>
</svg>
